<svg viewBox="-16 0 512 512.00061" xmlns="http://www.w3.org/2000/svg"><path d="m199.742188 371.378906-2.871094-1.367187c-3.246094-1.550781-4.644532-5.421875-3.140625-8.6875l161.175781-349.988281c1.53125-3.328126 5.492188-4.761719 8.800781-3.183594l12.332031 5.882812c3.308594 1.578125 4.6875 5.558594 3.0625 8.847656l-170.632812 345.476563c-1.59375 3.222656-5.480469 4.570313-8.726562 3.019531zm0 0" fill="#c1752f"/><path d="m212.773438 358.207031 2.605468 1.828125c2.941406 2.066406 7 1.386719 9.109375-1.527344l225.753907-312.261718c2.148437-2.96875 1.449218-7.125-1.550782-9.230469l-11.179687-7.851563c-3-2.109374-7.144531-1.355468-9.210938 1.671876l-217.175781 318.28125c-2.027344 2.972656-1.292969 7.019531 1.648438 9.089843zm0 0" fill="#c1752f"/><path d="m446.648438 265.539062c0 46.863282-37.992188 84.851563-84.851563 84.851563-46.863281 0-84.851563-37.988281-84.851563-84.851563 0-46.863281 37.988282-84.851562 84.851563-84.851562 46.859375 0 84.851563 37.988281 84.851563 84.851562zm0 0" fill="#f3e8d7"/><path d="m361.796875 180.6875c-9.773437 0-19.148437 1.671875-27.886719 4.710938 33.160156 11.539062 56.96875 43.050781 56.96875 80.140624 0 37.089844-23.808594 68.601563-56.96875 80.140626 8.738282 3.039062 18.113282 4.710937 27.886719 4.710937 46.859375 0 84.851563-37.988281 84.851563-84.851563 0-46.863281-37.992188-84.851562-84.851563-84.851562zm0 0" fill="#eaddcc"/><path d="m417.5625 265.539062c0 30.800782-24.96875 55.769532-55.765625 55.769532-30.800781 0-55.769531-24.96875-55.769531-55.769532 0-30.800781 24.96875-55.769531 55.769531-55.769531 30.796875 0 55.765625 24.96875 55.765625 55.769531zm0 0" fill="#e5d8c6"/><path d="m361.796875 209.769531c-10.164063 0-19.679687 2.730469-27.886719 7.480469 16.664063 9.644531 27.886719 27.652344 27.886719 48.289062 0 20.640626-11.222656 38.644532-27.886719 48.289063 8.207032 4.75 17.722656 7.480469 27.886719 7.480469 30.796875 0 55.765625-24.96875 55.765625-55.769532 0-30.796874-24.96875-55.769531-55.765625-55.769531zm0 0" fill="#d8c9b6"/><path d="m388.433594 265.539062c0 14.710938-11.925782 26.640626-26.636719 26.640626-14.714844 0-26.640625-11.929688-26.640625-26.640626 0-14.710937 11.925781-26.640624 26.640625-26.640624 14.710937 0 26.636719 11.929687 26.636719 26.640624zm0 0" fill="#f3e8d7"/><path d="m266.695312 196.546875c0 46.863281-37.988281 84.851563-84.851562 84.851563-46.859375 0-84.851562-37.988282-84.851562-84.851563 0-46.859375 37.992187-84.851563 84.851562-84.851563 46.863281 0 84.851562 37.992188 84.851562 84.851563zm0 0" fill="#f3e8d7"/><path d="m181.84375 111.695312c-10.222656 0-20.027344 1.8125-29.105469 5.125 32.527344 11.878907 55.746094 43.089844 55.746094 79.726563s-23.222656 67.851563-55.746094 79.726563c9.078125 3.316406 18.882813 5.125 29.105469 5.125 46.863281 0 84.851562-37.988282 84.851562-84.851563s-37.988281-84.851563-84.851562-84.851563zm0 0" fill="#eaddcc"/><path d="m237.613281 196.546875c0 30.800781-24.96875 55.769531-55.769531 55.769531-30.796875 0-55.765625-24.96875-55.765625-55.769531 0-30.796875 24.96875-55.765625 55.765625-55.765625 30.800781 0 55.769531 24.96875 55.769531 55.765625zm0 0" fill="#e5d8c6"/><path d="m181.84375 140.78125c-10.484375 0-20.292969 2.898438-28.671875 7.929688 16.230469 9.753906 27.09375 27.523437 27.09375 47.835937 0 20.316406-10.863281 38.085937-27.09375 47.835937 8.378906 5.035157 18.183594 7.933594 28.671875 7.933594 30.800781 0 55.769531-24.96875 55.769531-55.769531s-24.96875-55.765625-55.769531-55.765625zm0 0" fill="#d8c9b6"/><path d="m208.484375 196.546875c0 14.714844-11.925781 26.640625-26.640625 26.640625-14.710938 0-26.636719-11.925781-26.636719-26.640625 0-14.710937 11.925781-26.636719 26.636719-26.636719 14.714844 0 26.640625 11.925782 26.640625 26.636719zm0 0" fill="#f3e8d7"/><path d="m329.746094 265.539062c0 46.863282-37.988282 84.851563-84.851563 84.851563-46.859375 0-84.851562-37.988281-84.851562-84.851563 0-46.863281 37.992187-84.851562 84.851562-84.851562 46.863281 0 84.851563 37.988281 84.851563 84.851562zm0 0" fill="#f3e8d7"/><path d="m244.894531 180.6875c-10.222656 0-20.027343 1.808594-29.105469 5.125 32.527344 11.878906 55.746094 43.089844 55.746094 79.726562 0 36.636719-23.21875 67.847657-55.746094 79.726563 9.078126 3.3125 18.882813 5.125 29.105469 5.125 46.863281 0 84.851563-37.988281 84.851563-84.851563 0-46.863281-37.988282-84.851562-84.851563-84.851562zm0 0" fill="#eaddcc"/><path d="m300.664062 265.539062c0 30.800782-24.96875 55.769532-55.769531 55.769532-30.796875 0-55.765625-24.96875-55.765625-55.769532 0-30.800781 24.96875-55.769531 55.765625-55.769531 30.800781 0 55.769531 24.96875 55.769531 55.769531zm0 0" fill="#e5d8c6"/><path d="m244.894531 209.769531c-10.613281 0-20.535156 2.96875-28.984375 8.117188 16.0625 9.789062 26.785156 27.46875 26.785156 47.652343 0 20.183594-10.722656 37.863282-26.785156 47.652344 8.449219 5.148438 18.371094 8.117188 28.984375 8.117188 30.800781 0 55.769531-24.96875 55.769531-55.769532 0-30.796874-24.96875-55.769531-55.769531-55.769531zm0 0" fill="#d8c9b6"/><path d="m271.535156 265.539062c0 14.710938-11.925781 26.640626-26.640625 26.640626-14.710937 0-26.636719-11.929688-26.636719-26.640626 0-14.710937 11.925782-26.640624 26.636719-26.640624 14.714844 0 26.640625 11.929687 26.640625 26.640624zm0 0" fill="#f3e8d7"/><path d="m203.152344 265.539062c0 46.863282-37.992188 84.851563-84.851563 84.851563-46.863281 0-84.851562-37.988281-84.851562-84.851563 0-46.863281 37.988281-84.851562 84.851562-84.851562 46.859375 0 84.851563 37.988281 84.851563 84.851562zm0 0" fill="#f3e8d7"/><path d="m118.300781 180.6875c-10.128906 0-19.835937 1.78125-28.839843 5.035156 32.664062 11.804688 56.007812 43.082032 56.007812 79.816406 0 36.734376-23.347656 68.007813-56.007812 79.816407 9.003906 3.253906 18.710937 5.035156 28.839843 5.035156 46.859375 0 84.851563-37.988281 84.851563-84.851563 0-46.863281-37.992188-84.851562-84.851563-84.851562zm0 0" fill="#eaddcc"/><path d="m174.066406 265.539062c0 30.800782-24.96875 55.769532-55.765625 55.769532-30.800781 0-55.769531-24.96875-55.769531-55.769532 0-30.800781 24.96875-55.769531 55.769531-55.769531 30.796875 0 55.765625 24.96875 55.765625 55.769531zm0 0" fill="#e5d8c6"/><path d="m118.300781 209.769531c-10.617187 0-20.539062 2.96875-28.984375 8.117188 16.058594 9.789062 26.78125 27.46875 26.78125 47.652343 0 20.183594-10.722656 37.863282-26.78125 47.652344 8.445313 5.148438 18.367188 8.117188 28.984375 8.117188 30.796875 0 55.765625-24.96875 55.765625-55.769532 0-30.796874-24.96875-55.769531-55.765625-55.769531zm0 0" fill="#d8c9b6"/><path d="m144.9375 265.539062c0 14.710938-11.925781 26.640626-26.636719 26.640626-14.714843 0-26.640625-11.929688-26.640625-26.640626 0-14.710937 11.925782-26.640624 26.640625-26.640624 14.710938 0 26.636719 11.929687 26.636719 26.640624zm0 0" fill="#f3e8d7"/><path d="m12.097656 265.539062c-2.71875 0-4.84375 2.347657-4.574218 5.054688 4.71875 47.214844 25.355468 134.035156 110.535156 188.316406.660156.421875 1.378906.742188 2.128906.964844v28.300781c0 9.015625 7.304688 16.320313 16.320312 16.320313h207.164063c9.011719 0 16.320313-7.304688 16.320313-16.320313v-28.332031c.714843-.222656 1.40625-.527344 2.042968-.933594 85.175782-54.28125 105.8125-141.101562 110.53125-188.316406.273438-2.710938-1.851562-5.054688-4.574218-5.054688zm0 0" fill="#33d8dd"/><path d="m357.394531 460.253906h-234.695312c-.855469 0-1.703125-.132812-2.511719-.375v28.300782c0 9.011718 7.304688 16.320312 16.320312 16.320312h207.164063c9.015625 0 16.320313-7.308594 16.320313-16.320312v-28.332032c-.835938.261719-1.710938.40625-2.597657.40625zm0 0" fill="#2ecccc"/><path d="m357.394531 460.253906h-55.960937v44.246094h42.238281c9.015625 0 16.320313-7.308594 16.320313-16.320312v-28.332032c-.835938.261719-1.710938.40625-2.597657.40625zm0 0" fill="#23b5b1"/><path d="m122.699219 460.253906c-.855469 0-1.703125-.132812-2.511719-.375v.375zm0 0" fill="#25b9c0"/><path d="m121.46875 494.53125c-.621094-1.464844-1.03125-3.039062-1.199219-4.683594.167969 1.644532.578125 3.21875 1.199219 4.683594zm0 0" fill="#25b9c0"/><path d="m467.996094 265.539062h-55.261719c-.980469 106.484376-104.007813 192.335938-111.300781 194.714844h55.960937c.886719 0 1.761719-.144531 2.597657-.410156.71875-.222656 1.40625-.527344 2.042968-.933594 85.179688-54.28125 105.816406-141.101562 110.535156-188.316406.269532-2.707031-1.851562-5.054688-4.574218-5.054688zm0 0" fill="#2cc6c2"/><path d="m476.96875 262.015625c-2.292969-2.527344-5.5625-3.980469-8.972656-3.980469h-14.148438c-1.402344-17.648437-7.757812-34.277344-18.597656-48.480468-2.515625-3.292969-7.21875-3.925782-10.515625-1.414063-3.292969 2.515625-3.925781 7.222656-1.410156 10.515625 8.824219 11.5625 14.085937 25.050781 15.449219 39.378906h-14.167969c-3.726563-31.359375-30.464844-55.765625-62.8125-55.765625-14.222657 0-28.019531 4.855469-39.097657 13.550781-2.542968-3.964843-5.382812-7.71875-8.484374-11.238281 2.296874-1.796875 4.6875-3.441406 7.148437-4.953125.027344-.019531.058594-.03125.085937-.046875 3.015626-1.851562 6.125-3.480469 9.3125-4.886719.304688-.132812.613282-.261718.917969-.390624.800781-.34375 1.609375-.667969 2.417969-.980469.527344-.203125 1.054688-.402344 1.585938-.589844.40625-.148437.8125-.296875 1.222656-.4375.828125-.28125 1.664062-.546875 2.5-.796875.375-.113281.746094-.226562 1.125-.332031.859375-.246094 1.722656-.476563 2.589844-.695313.382812-.09375.765624-.179687 1.152343-.269531.65625-.152344 1.316407-.296875 1.976563-.429687.613281-.125 1.226562-.242188 1.84375-.351563.558594-.101563 1.121094-.195313 1.6875-.285156.519531-.082031 1.039062-.160157 1.5625-.230469 3.441406-.46875 6.933594-.714844 10.457031-.714844 13.085937 0 26.015625 3.324219 37.386719 9.617188 3.625 2.003906 8.1875.691406 10.195312-2.933594 2.003906-3.625.695313-8.1875-2.933594-10.195312-11.902343-6.585938-25.230468-10.453126-38.851562-11.308594l88.726562-122.730469c2.222657-3.074219 3.101563-6.828125 2.476563-10.574219-.628906-3.742187-2.6875-7.007812-5.789063-9.191406-.003906 0-.003906 0-.003906 0l-11.179687-7.851562c-3.105469-2.183594-6.878907-3.011719-10.609375-2.332032-3.734375.679688-6.96875 2.78125-9.109375 5.917969l-109.859375 161.003906c-3.082032 1.964844-6.042969 4.136719-8.898438 6.476563-.105468-.082032-.210937-.167969-.316406-.253906l82.796875-167.632813c1.679687-3.402344 1.921875-7.253906.679687-10.84375-1.242187-3.585937-3.8125-6.460937-7.238281-8.097656l-12.328125-5.878907c-3.429687-1.636718-7.28125-1.828124-10.851562-.535156-3.570313 1.292969-6.414063 3.902344-8 7.351563l-76.566406 166.269531c-4.554688-18.511719-14.804688-35.296875-29.390626-47.878906-16.738281-14.4375-38.152343-22.394532-60.285156-22.394532-22.113281 0-43.507812 7.941407-60.242187 22.355469-15.304688 13.183594-25.839844 31.003907-30.039063 50.585938-35.628906 10.796875-62.21875 42.582031-65.3125 80.902343h-14.15625c-3.410156 0-6.679687 1.449219-8.96875 3.980469-2.289062 2.527344-3.40625 5.925781-3.0703122 9.320313 4.8125002 48.125 25.8554682 136.96875 112.6250002 193.035156v23.804688c0 13.132812 10.6875 23.820312 23.824218 23.820312h207.164063c13.136719 0 23.820313-10.6875 23.820313-23.820312v-23.855469c43.382812-28.054688 75.132812-67.289063 94.382812-116.640625 2.402344-6.160156 4.621094-12.527344 6.597656-18.925782 1.589844-5.15625 3.058594-10.453124 4.363282-15.734374 3.375-13.644532 5.796874-27.667969 7.195312-41.683594.339844-3.398438-.777344-6.792969-3.0625-9.324219zm-43-226.175781 9.644531 6.773437-95.089843 131.523438c-.433594.0625-.867188.148437-1.300782.21875-.652344.101562-1.304687.210937-1.953125.328125-.574219.105468-1.144531.207031-1.714843.324218-1.015626.199219-2.023438.417969-3.027344.65625-.480469.113282-.960938.234376-1.441406.359376-.308594.078124-.617188.148437-.925782.230468zm-72.171875 181.433594c24.0625 0 44.0625 17.699218 47.679687 40.761718h-14.378906c-3.429687-15.226562-17.054687-26.636718-33.300781-26.636718-10.933594 0-20.675781 5.171874-26.929687 13.191406-1.210938-5.195313-2.875-10.285156-4.996094-15.238282 8.773437-7.726562 20.160156-12.078124 31.925781-12.078124zm17.601563 40.761718h-35.207032c2.925782-6.832031 9.710938-11.636718 17.601563-11.636718 7.894531.003906 14.683593 4.804687 17.605469 11.636718zm-18.070313-242.707031 10.632813 5.070313-81.429688 164.871093c-1.960938-1.117187-3.96875-2.167969-6.019531-3.144531zm-89.09375 177.867187c.597656.226563 1.191406.457032 1.785156.699219.316407.128907.632813.269531.949219.402344.949219.402344 1.886719.820313 2.816406 1.257813.414063.195312.824219.390624 1.234375.589843.480469.238281.957031.480469 1.429688.726563.5.261718.996093.527344 1.488281.796875.523438.285156 1.042969.578125 1.5625.875.652344.378906 1.300781.761719 1.941406 1.15625.359375.222656.71875.453125 1.074219.679687.550781.351563 1.09375.714844 1.632813 1.078125.316406.214844.632812.421875.945312.640625 11.359375 7.9375 20.5 18.84375 26.285156 31.585938.039063.089844.078125.175781.117188.265625 3.34375 7.441406 5.542968 15.503906 6.375 23.960937.003906.042969.007812.082032.011718.125h-14.175781c-3.722656-31.359375-30.460937-55.769531-62.808593-55.769531-17.398438 0-33.640626 7.023437-45.433594 19.242187-2.28125-4.195312-4.878906-8.234374-7.808594-12.0625 14.316406-13.582031 33.386719-21.257812 53.242188-21.257812 9.621093 0 18.832031 1.785156 27.335937 5.007812zm-27.339844 38.203126c-16.246093 0-29.871093 11.414062-33.300781 26.640624h-1.246094c-.003906-.058593-.011718-.113281-.015625-.167968-.078125-.941406-.171875-1.878906-.277343-2.8125-.03125-.257813-.058594-.519532-.089844-.78125-.128906-1.027344-.269532-2.050782-.425782-3.070313-.035156-.226562-.078124-.453125-.113281-.679687-.125-.761719-.261719-1.519532-.40625-2.273438-.003906-.035156-.011719-.074218-.019531-.109375-.019531-.09375-.035156-.1875-.054688-.28125-.042968-.21875-.082031-.441406-.125-.660156-.207031-1.011719-.429687-2.011719-.664062-3.007813-.0625-.265624-.128906-.527343-.195312-.792968-.132813-.539063-.269532-1.074219-.410157-1.609375-.003906-.011719-.007812-.027344-.011719-.039063-.101562-.386718-.207031-.769531-.3125-1.15625-.035156-.128906-.070312-.257812-.109374-.390625-.148438-.515625-.304688-1.035156-.460938-1.546875-.007812-.023437-.015625-.042968-.019531-.066406-.128907-.417969-.261719-.832031-.394531-1.25-.050782-.164062-.097657-.328125-.148438-.492188 9.097656-12.320312 23.355469-19.578124 38.800781-19.578124 24.0625 0 44.066407 17.703124 47.679688 40.765624h-14.378907c-3.425781-15.230468-17.050781-26.640624-33.300781-26.640624zm17.605469 26.636718h-35.207031c2.925781-6.832031 9.710937-11.636718 17.605469-11.636718 7.890624.003906 14.675781 4.804687 17.601562 11.636718zm-80.65625-80.625c6.5625 0 12.542969 3.394532 16.011719 8.6875-5.828125 3.449219-11.289063 7.546875-16.277344 12.242188-4.832031-4.554688-10.15625-8.597656-15.882813-12.035156 3.445313-5.414063 9.480469-8.894532 16.148438-8.894532zm-29.648438 2.21875c-4.417968-1.75-9.003906-3.164062-13.726562-4.21875 7.976562-16.308594 24.78125-27.128906 43.375-27.128906 18.558594 0 35.34375 10.785156 43.335938 27.046875-4.699219 1.03125-9.304688 2.421875-13.769532 4.164063-6-10.359376-17.210937-17.085938-29.566406-17.085938-12.441406 0-23.679688 6.78125-29.648438 17.222656zm-20.796874-41.710937c14.011718-12.070313 31.925781-18.71875 50.449218-18.71875 18.539063 0 36.46875 6.660156 50.484375 18.753906 11.101563 9.574219 19.199219 22.054687 23.449219 35.878906-3.570312-.421875-7.203125-.644531-10.882812-.644531-1.414063 0-2.824219.039062-4.230469.101562-9.441407-23.835937-32.800781-40.007812-58.820313-40.007812-26.035156 0-49.390625 16.179688-58.832031 40.023438-1.5625-.078126-3.132813-.117188-4.714844-.117188-3.507812 0-6.964843.203125-10.371093.585938 4.261718-13.816407 12.367187-26.289063 23.46875-35.855469zm-13.097657 50.269531c30.613281 0 57.132813 17.882812 69.660157 43.75.101562.214844.199218.433594.296874.648438.40625.855468.796876 1.714843 1.171876 2.582031.183593.4375.355468.875.535156 1.3125.269531.660156.535156 1.324219.785156 1.992187.207031.554688.398438 1.109375.59375 1.667969.199219.566406.394531 1.132813.578125 1.707031.203125.621094.386719 1.246094.574219 1.871094.152344.523438.304687 1.050781.449218 1.582031.179688.65625.347657 1.316407.507813 1.976563.125.519531.246094 1.042968.363281 1.570312.144532.664063.285156 1.328125.414063 2 .105469.546875.203125 1.09375.296875 1.644532.109375.648437.21875 1.300781.3125 1.953124.089844.609376.160156 1.222657.234375 1.835938.070312.582031.144531 1.167969.203125 1.757812h-14.167969c-3.722656-31.363281-30.460937-55.769531-62.808594-55.769531-32.347656 0-59.085937 24.40625-62.808593 55.769531h-14.171876c3.785157-39.144531 36.859376-69.851562 76.980469-69.851562zm0 43.210938c-16.25 0-29.875 11.414062-33.300781 26.640624h-14.378906c3.613281-23.0625 23.617187-40.765624 47.679687-40.765624 24.058594 0 44.0625 17.703124 47.679688 40.765624h-14.382813c-3.425781-15.230468-17.050781-26.640624-33.296875-26.640624zm17.601563 26.636718h-35.207032c2.925782-6.832031 9.710938-11.636718 17.605469-11.636718 7.890625 0 14.679688 4.804687 17.601563 11.636718zm322.371094 51.382813c-1.238282 5.011719-2.628907 10.027343-4.136719 14.914062-1.867188 6.054688-3.96875 12.078125-6.238281 17.898438-18.277344 46.863281-48.519532 83.988281-89.882813 110.347656-.007813.003906-.085937.054687-.257813.105469-.136718.042968-.265624.066406-.363281.066406h-177.855469c-4.144531 0-7.503906 3.355469-7.503906 7.5s3.359375 7.503906 7.503906 7.503906h172.953126v20.421875c0 4.863281-3.957032 8.820313-8.820313 8.820313h-207.164063c-4.863281 0-8.820312-3.957032-8.820312-8.820313v-20.421875h16.945312c4.140626 0 7.5-3.359375 7.5-7.503906s-3.359374-7.5-7.5-7.5h-21.933593c-.105469 0-.226563-.019531-.355469-.058594-.140625-.042968-.222656-.085937-.253906-.109375-80.664063-51.402343-101.589844-133.222656-106.761719-179.542969h449.4375c-1.363281 12.242188-3.546875 24.464844-6.492187 36.378907zm0 0"/></svg>